<svg width="79" height="12" viewBox="0 0 79 12" fill="none" xmlns="http://www.w3.org/2000/svg">
<path d="M6.75107 2.45661C7.36746 2.45314 7.97427 2.60915 8.51255 2.90948C9.05084 3.20981 9.50229 3.64426 9.82307 4.17061L11.8511 3.03261C11.3194 2.15755 10.5702 1.43499 9.67652 0.935226C8.78283 0.435459 7.775 0.175491 6.75107 0.180609C5.20993 0.15709 3.72255 0.746709 2.6161 1.81977C1.50965 2.89284 0.874763 4.36146 0.851074 5.90261C0.875025 7.44358 1.51003 8.91195 2.61645 9.9848C3.72287 11.0576 5.2101 11.6471 6.75107 11.6236C7.77504 11.6289 8.78294 11.369 9.67667 10.8693C10.5704 10.3695 11.3195 9.6468 11.8511 8.77161L9.82307 7.63361C9.50229 8.15996 9.05084 8.5944 8.51255 8.89474C7.97427 9.19507 7.36746 9.35108 6.75107 9.34761C5.82296 9.36177 4.92722 9.00668 4.26091 8.36043C3.5946 7.71419 3.21229 6.82973 3.19807 5.90161C3.21255 4.97367 3.59498 4.08946 4.26126 3.44343C4.92754 2.7974 5.82313 2.44244 6.75107 2.45661Z" fill="white"/>
<path d="M50.2939 2.45661C50.9105 2.45297 51.5175 2.6089 52.056 2.90924C52.5944 3.20958 53.0461 3.64411 53.3669 4.17061L55.3989 3.03261C54.8672 2.15755 54.1181 1.43499 53.2244 0.935227C52.3307 0.435459 51.3228 0.175491 50.2989 0.180609C48.7579 0.157089 47.2707 0.746571 46.1643 1.81942C45.0579 2.89227 44.4229 4.36064 44.3989 5.90161C44.4229 7.44258 45.0579 8.91095 46.1643 9.9838C47.2707 11.0566 48.7579 11.6461 50.2989 11.6226C51.3229 11.6279 52.3308 11.368 53.2245 10.8683C54.1182 10.3685 54.8674 9.6458 55.3989 8.77061L53.3669 7.63361C53.0461 8.16011 52.5944 8.59464 52.056 8.89498C51.5175 9.19532 50.9105 9.35125 50.2939 9.34761C49.3658 9.36177 48.4701 9.00668 47.8038 8.36043C47.1375 7.71419 46.7551 6.82973 46.7409 5.90161C46.7554 4.97367 47.1378 4.08946 47.8041 3.44343C48.4704 2.7974 49.366 2.44244 50.2939 2.45661Z" fill="white"/>
<path d="M79.001 9.13745H76.688V11.3805H79.001V9.13745Z" fill="white"/>
<path d="M18.1541 0.245539C16.6219 0.222553 15.1434 0.808901 14.0434 1.87569C12.9434 2.94248 12.312 4.40241 12.2881 5.93454C12.3326 7.46078 12.9703 8.90958 14.0656 9.97339C15.1609 11.0372 16.6277 11.6323 18.1546 11.6323C19.6815 11.6323 21.1483 11.0372 22.2436 9.97339C23.3389 8.90958 23.9765 7.46078 24.0211 5.93454C23.9971 4.40223 23.3656 2.94215 22.2654 1.87533C21.1652 0.808515 19.6864 0.222285 18.1541 0.245539ZM18.1541 9.36054C17.2313 9.37444 16.3409 9.02136 15.6784 8.37892C15.0158 7.73649 14.6356 6.85727 14.6211 5.93454C14.643 5.01208 15.0249 4.13479 15.6851 3.49014C16.3452 2.84549 17.2314 2.4846 18.1541 2.4846C19.0768 2.4846 19.9629 2.84549 20.6231 3.49014C21.2833 4.13479 21.6651 5.01208 21.6871 5.93454C21.6726 6.85727 21.2923 7.73649 20.6298 8.37892C19.9673 9.02136 19.0768 9.37444 18.1541 9.36054Z" fill="white"/>
<path d="M61.61 0.525391H59.519V11.6234H61.61V0.525391Z" fill="white"/>
<path d="M67.9423 11.6385H65.7603V4.3735C65.7603 3.21358 66.221 2.10116 67.0412 1.28097C67.8614 0.460778 68.9738 0 70.1337 0C71.2937 0 72.4061 0.460778 73.2263 1.28097C74.0464 2.10116 74.5073 3.21358 74.5073 4.3735V11.6345H72.3253V7.5735H67.9423V11.6385ZM72.3253 4.3735C72.3658 4.06181 72.3395 3.74505 72.2479 3.44437C72.1564 3.14368 72.0017 2.86598 71.7943 2.62981C71.5868 2.39364 71.3315 2.20443 71.0451 2.07481C70.7588 1.94519 70.448 1.87814 70.1337 1.87814C69.8194 1.87814 69.5087 1.94519 69.2224 2.07481C68.936 2.20443 68.6806 2.39364 68.4732 2.62981C68.2658 2.86598 68.1112 3.14368 68.0196 3.44437C67.928 3.74505 67.9017 4.06181 67.9423 4.3735V5.6605H72.3253V4.3735Z" fill="white"/>
<path d="M27.1833 0.456543H25.0923V11.4665H27.1833V0.456543Z" fill="white"/>
<path d="M34.2893 0.456543H32.4683V11.4665H34.2893V0.456543Z" fill="white"/>
<path d="M27.1523 0.418457L32.4684 8.05846V11.4665L27.1523 4.11846" fill="white"/>
<path d="M56.1099 0.290603V2.3186L65.0539 2.3186V0.290603L56.1099 0.290603Z" fill="white"/>
<path d="M38.258 0.456543H36.167V11.4665H38.258V0.456543Z" fill="white"/>
<path d="M36.1738 0.448434V2.41943L43.6528 2.41943V0.448434L36.1738 0.448434Z" fill="white"/>
<path d="M36.1738 9.50239V11.4734H43.6528V9.50239H36.1738Z" fill="white"/>
<path d="M36.1748 5.09855V6.89355H43.2468V5.09855H36.1748Z" fill="white"/>
</svg>
